<?xml version="1.0" encoding="UTF-8"?>
<svg version="1.1" xmlns="http://www.w3.org/2000/svg" width="1074" height="877">
<path d="M0 0 C354.42 0 708.84 0 1074 0 C1074 289.41 1074 578.82 1074 877 C719.58 877 365.16 877 0 877 C0 587.59 0 298.18 0 0 Z " fill="#618BD0" transform="translate(0,0)"/>
<path d="M0 0 C4.99752785 4.13513226 9.66259991 8.61347077 14.22924805 13.21582031 C15.42824165 14.42390597 16.63846208 15.62093435 17.85864258 16.80761719 C38.56119238 37.02652713 49.81215878 66.72728397 50.35327148 95.26855469 C50.42558296 107.47863197 49.75968472 119.10109965 47 131 C46.59974609 132.80210937 46.59974609 132.80210937 46.19140625 134.640625 C38.66266938 164.48788407 16.1898912 191.29316756 -9.82470703 207.109375 C-19.09518311 212.55476239 -28.76507676 216.73917493 -39 220 C-39.74362793 220.24411621 -40.48725586 220.48823242 -41.25341797 220.73974609 C-52.71543974 224.37357828 -63.89254147 225.47434743 -75.875 225.5 C-77.14545166 225.50628418 -78.41590332 225.51256836 -79.72485352 225.51904297 C-91.63800502 225.36000537 -103.2288478 223.45612023 -114.4375 219.3125 C-115.13576904 219.05903809 -115.83403809 218.80557617 -116.5534668 218.54443359 C-135.06191803 211.61182193 -150.29197386 201.05446107 -165 188 C-167.54107512 189.2002525 -169.41119503 190.33287217 -171.625 192.125 C-174 194 -174 194 -176 194 C-174.35 196.31 -172.7 198.62 -171 201 C-172.32210291 204.0118602 -173.63389503 205.80540131 -176.203125 207.84765625 C-177.16822998 208.62314819 -177.16822998 208.62314819 -178.15283203 209.41430664 C-178.84489746 209.95821045 -179.53696289 210.50211426 -180.25 211.0625 C-180.96655762 211.63540771 -181.68311523 212.20831543 -182.42138672 212.79858398 C-187.53166144 216.87473047 -192.69093349 220.88869496 -197.84863281 224.90454102 C-201.99975276 228.15797833 -206.01591902 231.54479897 -210 235 C-214.72461092 239.09639123 -219.51894523 243.07556279 -224.4375 246.9375 C-225.26991211 247.59202148 -225.26991211 247.59202148 -226.11914062 248.25976562 C-227.73644668 249.51982761 -229.36408637 250.76420297 -231 252 C-231.59055176 252.44746582 -232.18110352 252.89493164 -232.78955078 253.35595703 C-240.39416513 258.97265167 -246.57350709 259.72949885 -256 259 C-261.61107609 257.85451716 -265.27835755 255.34191619 -269 251 C-269.721875 250.175 -270.44375 249.35 -271.1875 248.5 C-275.59727054 242.41755788 -275.77702666 236.29646984 -275 229 C-272.55412379 221.30935831 -267.27367897 215.9249801 -260.875 211.25 C-255.7979938 207.44919283 -251.05446771 203.43674523 -246.3828125 199.140625 C-243.26309912 196.33799724 -239.99197859 193.75898469 -236.69921875 191.1640625 C-233.58294364 188.66563065 -230.53986555 186.09035163 -227.5 183.5 C-219.53864749 176.72796753 -211.41341507 170.20430609 -203 164 C-201.29115995 165.62339805 -199.62553283 167.29319053 -198 169 C-198 169.66 -198 170.32 -198 171 C-194.04 168.03 -190.08 165.06 -186 162 C-187.19259478 158.42221566 -188.25784168 155.25087058 -189.8046875 151.890625 C-194.65184329 141.07648148 -197.90918705 130.65894002 -200 119 C-200.1743457 118.04988037 -200.34869141 117.09976074 -200.52832031 116.12084961 C-204.77564953 88.01856731 -198.14368759 59.7389373 -183 36 C-182.65018066 35.44135254 -182.30036133 34.88270508 -181.93994141 34.30712891 C-164.15250127 6.3231698 -134.90365681 -14.54234249 -102.56347656 -21.83642578 C-67.42556081 -29.04303067 -28.94286057 -21.46839548 0 0 Z " fill="#668ED1" transform="translate(631,255)"/>
<path d="M0 0 C4.99752785 4.13513226 9.66259991 8.61347077 14.22924805 13.21582031 C15.42824165 14.42390597 16.63846208 15.62093435 17.85864258 16.80761719 C38.56119238 37.02652713 49.81215878 66.72728397 50.35327148 95.26855469 C50.42558296 107.47863197 49.75968472 119.10109965 47 131 C46.59974609 132.80210937 46.59974609 132.80210937 46.19140625 134.640625 C38.66266938 164.48788407 16.1898912 191.29316756 -9.82470703 207.109375 C-19.09518311 212.55476239 -28.76507676 216.73917493 -39 220 C-39.74362793 220.24411621 -40.48725586 220.48823242 -41.25341797 220.73974609 C-52.71543974 224.37357828 -63.89254147 225.47434743 -75.875 225.5 C-77.14545166 225.50628418 -78.41590332 225.51256836 -79.72485352 225.51904297 C-91.63800502 225.36000537 -103.2288478 223.45612023 -114.4375 219.3125 C-115.13576904 219.05903809 -115.83403809 218.80557617 -116.5534668 218.54443359 C-135.06191803 211.61182193 -150.29197386 201.05446107 -165 188 C-167.54107512 189.2002525 -169.41119503 190.33287217 -171.625 192.125 C-174 194 -174 194 -176 194 C-174.35 196.31 -172.7 198.62 -171 201 C-172.32210291 204.0118602 -173.63389503 205.80540131 -176.203125 207.84765625 C-177.16822998 208.62314819 -177.16822998 208.62314819 -178.15283203 209.41430664 C-178.84489746 209.95821045 -179.53696289 210.50211426 -180.25 211.0625 C-180.96655762 211.63540771 -181.68311523 212.20831543 -182.42138672 212.79858398 C-187.53166144 216.87473047 -192.69093349 220.88869496 -197.84863281 224.90454102 C-201.99975276 228.15797833 -206.01591902 231.54479897 -210 235 C-214.72461092 239.09639123 -219.51894523 243.07556279 -224.4375 246.9375 C-225.26991211 247.59202148 -225.26991211 247.59202148 -226.11914062 248.25976562 C-227.73644668 249.51982761 -229.36408637 250.76420297 -231 252 C-231.59055176 252.44746582 -232.18110352 252.89493164 -232.78955078 253.35595703 C-240.39416513 258.97265167 -246.57350709 259.72949885 -256 259 C-261.61107609 257.85451716 -265.27835755 255.34191619 -269 251 C-269.721875 250.175 -270.44375 249.35 -271.1875 248.5 C-275.59727054 242.41755788 -275.77702666 236.29646984 -275 229 C-272.55412379 221.30935831 -267.27367897 215.9249801 -260.875 211.25 C-255.7979938 207.44919283 -251.05446771 203.43674523 -246.3828125 199.140625 C-243.26309912 196.33799724 -239.99197859 193.75898469 -236.69921875 191.1640625 C-233.58294364 188.66563065 -230.53986555 186.09035163 -227.5 183.5 C-219.53864749 176.72796753 -211.41341507 170.20430609 -203 164 C-201.29115995 165.62339805 -199.62553283 167.29319053 -198 169 C-198 169.66 -198 170.32 -198 171 C-194.04 168.03 -190.08 165.06 -186 162 C-187.19259478 158.42221566 -188.25784168 155.25087058 -189.8046875 151.890625 C-194.65184329 141.07648148 -197.90918705 130.65894002 -200 119 C-200.1743457 118.04988037 -200.34869141 117.09976074 -200.52832031 116.12084961 C-204.77564953 88.01856731 -198.14368759 59.7389373 -183 36 C-182.65018066 35.44135254 -182.30036133 34.88270508 -181.93994141 34.30712891 C-164.15250127 6.3231698 -134.90365681 -14.54234249 -102.56347656 -21.83642578 C-67.42556081 -29.04303067 -28.94286057 -21.46839548 0 0 Z M-109 0 C-109.65274902 0.23525391 -110.30549805 0.47050781 -110.97802734 0.71289062 C-123.47903646 5.3563967 -133.85561267 12.47474941 -144 21 C-144.75023437 21.60328125 -145.50046875 22.2065625 -146.2734375 22.828125 C-161.66160948 35.67859844 -171.59845274 53.94644087 -177 73 C-177.23332031 73.76828125 -177.46664062 74.5365625 -177.70703125 75.328125 C-184.92819577 100.88793037 -177.44213092 128.49746306 -165 151 C-151.79179709 174.07032775 -129.38257973 190.52214659 -104.125 198.25 C-75.38725995 205.90489191 -46.69215484 201.43004869 -20.86181641 187.10009766 C-15.90909222 184.17366503 -11.44117226 180.64643617 -7 177 C-6.29746094 176.46117187 -5.59492187 175.92234375 -4.87109375 175.3671875 C9.80611762 163.56611654 19.78619223 145.59389462 25.125 127.81640625 C26 125 26 125 27 124 C33.25163324 97.35070212 29.03285617 69.70922514 15.1875 46.3125 C-1.088443 20.84652835 -25.55587735 2.98771473 -55.09594727 -3.70483398 C-73.06532685 -7.2894317 -91.79784884 -6.26130365 -109 0 Z " fill="#FAFCFD" transform="translate(631,255)"/>
<path d="M0 0 C3.35562577 1.23471097 5.18964681 2.98491214 7.7578125 5.46875 C8.72693875 6.38777176 9.69835337 7.30438556 10.671875 8.21875 C11.16333008 8.68152344 11.65478516 9.14429688 12.16113281 9.62109375 C14.40270006 11.67375652 16.76269497 13.56722304 19.1328125 15.46875 C23.94615401 19.35512845 28.52548481 23.44616418 33.08203125 27.62890625 C38.25581232 32.37484019 43.55471224 36.92169811 49.0078125 41.34375 C53.55207386 45.03714412 57.93014627 48.87122918 62.24609375 52.828125 C64.9793921 55.2795939 67.81221407 57.6182513 70.6328125 59.96875 C71.1278125 37.69375 71.1278125 37.69375 71.6328125 14.96875 C81.8628125 14.96875 92.0928125 14.96875 102.6328125 14.96875 C102.6107373 17.16329834 102.58866211 19.35784668 102.56591797 21.61889648 C102.50006643 28.89528197 102.48957704 36.17100439 102.50584221 43.44764614 C102.51401701 47.85693755 102.5039395 52.26456735 102.45117188 56.67358398 C102.4008669 60.93429934 102.39978436 65.19252296 102.43185806 69.45338631 C102.43558982 71.07320616 102.42201909 72.69316732 102.39031601 74.3126812 C102.07904658 83.65115595 102.07904658 83.65115595 105.83616638 91.94062805 C108.33049931 94.2073476 110.82421015 96.11384663 113.6328125 97.96875 C115.08107422 99.16951172 115.08107422 99.16951172 116.55859375 100.39453125 C117.34621094 101.01714844 118.13382813 101.63976562 118.9453125 102.28125 C123.7578654 106.17066158 128.2787977 110.2961825 132.79174805 114.5222168 C137.02776108 118.46665439 141.43916058 122.13355701 145.953125 125.7578125 C148.76534565 128.0780995 151.45078513 130.49946134 154.1328125 132.96875 C159.45587829 137.86536131 165.004347 142.43024131 170.6328125 146.96875 C172.63993986 148.62714866 174.63707753 150.29664773 176.6328125 151.96875 C175.50260342 153.09895908 174.37166061 154.22843886 173.23828125 155.35546875 C172.10554931 156.49371277 170.98415592 157.64329531 169.87109375 158.80078125 C164.80952309 164.0060882 159.38123532 168.53963733 153.6328125 172.96875 C148.67116512 169.96564764 144.59218211 166.28842978 140.3203125 162.37890625 C137.75238172 160.07597996 135.12788288 157.88636268 132.4453125 155.71875 C127.25489652 151.51943183 122.21925948 147.16197456 117.18969727 142.77319336 C113.47383372 139.53927007 109.71666028 136.37571285 105.8828125 133.28125 C101.2137233 129.50315563 96.79669926 125.50046986 92.37890625 121.43359375 C89.71406084 119.04167703 86.98449425 116.77620116 84.1953125 114.53125 C79.66045089 110.87368736 75.37745067 107.02257973 71.11572266 103.05712891 C67.00501974 99.25476193 62.71005666 95.72604408 58.34765625 92.21484375 C54.56713964 89.08707821 50.98800375 85.75601117 47.37890625 82.43359375 C44.71406084 80.04167703 41.98449425 77.77620116 39.1953125 75.53125 C35.20053748 72.30929063 31.38758556 68.96188535 27.6328125 65.46875 C22.15995831 60.3842976 16.45782874 55.6469146 10.6328125 50.96875 C8.56689719 49.28538746 6.50631383 47.59563856 4.4453125 45.90625 C3.52363281 45.15214844 2.60195313 44.39804688 1.65234375 43.62109375 C0.98589844 43.07582031 0.31945312 42.53054687 -0.3671875 41.96875 C-4.82752508 43.38794832 -7.69567928 45.83491643 -10.9921875 49.03125 C-14.86291737 52.68637369 -18.77579253 56.1938308 -22.9296875 59.53125 C-27.72808064 63.39623813 -32.28665083 67.4703482 -36.82421875 71.63671875 C-41.77405128 76.17596609 -46.85700646 80.54391968 -51.99707031 84.8659668 C-52.55233398 85.33301025 -53.10759766 85.80005371 -53.6796875 86.28125 C-54.23881836 86.75151611 -54.79794922 87.22178223 -55.37402344 87.70629883 C-58.98666825 90.75974458 -62.5102177 93.89073629 -65.9921875 97.09375 C-70.42126132 101.16284104 -75.00443995 104.97739772 -79.68359375 108.75390625 C-82.31427307 110.92507827 -84.84661174 113.17116357 -87.3671875 115.46875 C-90.68708236 118.49157421 -94.06482862 121.39387161 -97.5546875 124.21875 C-106.47262012 131.44404385 -115.126227 138.99724061 -123.6171875 146.71875 C-127.82998348 150.54095563 -132.20445495 154.12586417 -136.62890625 157.69921875 C-139.38806674 159.98605505 -142.03740658 162.36080976 -144.6796875 164.78125 C-148.08612686 167.88887889 -151.42531444 170.58287946 -155.3671875 172.96875 C-157.74101772 170.8323028 -160.11424034 168.69523646 -162.484375 166.5546875 C-164.3740377 164.85962421 -166.27477611 163.1768098 -168.1875 161.5078125 C-169.07179688 160.73179687 -169.95609375 159.95578125 -170.8671875 159.15625 C-171.681875 158.44855469 -172.4965625 157.74085938 -173.3359375 157.01171875 C-175.2742302 155.06224359 -176.32511616 153.48897688 -177.3671875 150.96875 C-176.68914062 150.42347656 -176.01109375 149.87820313 -175.3125 149.31640625 C-170.55998553 145.46568469 -165.88794672 141.58976363 -161.3671875 137.46875 C-157.97120068 134.37319804 -154.50547219 131.41723793 -150.9296875 128.53125 C-146.1557845 124.67049863 -141.63330322 120.59437925 -137.1171875 116.4375 C-133.55534521 113.23993704 -129.84152917 110.25486657 -126.1171875 107.25 C-123.28619172 104.90156032 -120.57335152 102.45965098 -117.8671875 99.96875 C-113.41991638 95.87523909 -108.82001287 92.04432501 -104.1171875 88.25 C-100.32671279 85.10562893 -96.73174364 81.76472945 -93.109375 78.4296875 C-90.46702867 76.05835105 -87.76024583 73.81622003 -84.9921875 71.59375 C-80.78902063 68.20487187 -76.80536178 64.65615524 -72.8671875 60.96875 C-68.15909656 56.56456247 -63.32736555 52.40888228 -58.30078125 48.3671875 C-54.17163321 44.99129283 -50.1581216 41.48822143 -46.13647461 37.9855957 C-41.79629037 34.20561275 -37.4332647 30.45415993 -33.0546875 26.71875 C-29.04359494 23.29448395 -25.08063044 19.83147725 -21.1796875 16.28125 C-16.82387326 12.32207447 -12.30418924 8.59874565 -7.71484375 4.9140625 C-5.38781723 3.10940501 -5.38781723 3.10940501 -3.86328125 1.1484375 C-2.3671875 -0.03125 -2.3671875 -0.03125 0 0 Z " fill="#FAFCFD" transform="translate(557.3671875,128.03125)"/>
<path d="M0 0 C68.87373737 0 68.87373737 0 84.875 15.6328125 C94.35336638 26.19143387 96.33641311 36.57485655 96.21875 50.4296875 C95.54287434 61.46094373 91.23755403 72.44606041 83 80 C69.45633089 90.25511048 54.68637191 93.36227369 37.98828125 93.1953125 C37.01644897 93.19329834 36.0446167 93.19128418 35.04333496 93.18920898 C31.46634089 93.17886641 27.88941492 93.15094546 24.3125 93.125 C12.2778125 93.063125 12.2778125 93.063125 0 93 C0 62.31 0 31.62 0 0 Z " fill="#FAFCFD" transform="translate(355,548)"/>
<path d="M0 0 C8.25 0 16.5 0 25 0 C32.7513307 8.03065793 32.7513307 8.03065793 34.56640625 11.60546875 C36.80735944 15.75588386 39.42222247 19.33444516 42.375 23 C45.9562254 27.63826451 49.49882862 32.30105946 53 37 C56.59032226 33.54312335 59.67220972 29.9871607 62.6875 26 C63.55983458 24.85281801 64.43223232 23.70568403 65.3046875 22.55859375 C65.96936035 21.68050049 65.96936035 21.68050049 66.64746094 20.78466797 C68.85759459 17.86840858 71.08445494 14.96508306 73.3125 12.0625 C74.09238281 11.04285156 74.87226562 10.02320313 75.67578125 8.97265625 C78.05382963 5.93115235 80.52836915 2.96595702 83 0 C91.25 0 99.5 0 108 0 C108 30.36 108 60.72 108 92 C100.41 92 92.82 92 85 92 C84.67 72.2 84.34 52.4 84 32 C81.03 35.96 78.06 39.92 75 44 C72.76593402 46.78766162 70.52666291 49.56082965 68.25 52.3125 C67.16978981 53.61937301 66.0916398 54.9279518 65.015625 56.23828125 C64.50193359 56.85783691 63.98824219 57.47739258 63.45898438 58.11572266 C61.99993151 60.00008845 60.79559471 61.95308166 59.546875 63.98046875 C57 67 57 67 53.5390625 67.83984375 C48.85067252 66.72725672 47.05236418 64.31715233 44.375 60.5625 C43.87572998 59.90032471 43.37645996 59.23814941 42.86206055 58.5559082 C41.79131333 57.13338431 40.72965989 55.70397888 39.67626953 54.26855469 C37.93866534 51.91699364 36.16169964 49.60047645 34.37109375 47.2890625 C32.07934664 44.3275683 29.78987866 41.36466595 27.51953125 38.38671875 C27.05651611 37.78045654 26.59350098 37.17419434 26.11645508 36.54956055 C25 35 25 35 24 33 C23.67 52.47 23.34 71.94 23 92 C15.41 92 7.82 92 0 92 C0 61.64 0 31.28 0 0 Z " fill="#FBFCFD" transform="translate(509,549)"/>
<path d="M0 0 C7.92 0 15.84 0 24 0 C24 31.02 24 62.04 24 94 C16.41 94 8.82 94 1 94 C-5.47485632 87.52514368 -5.47485632 87.52514368 -6.9453125 84.58984375 C-8.90900328 80.99485277 -11.34945728 78.21857584 -14.1875 75.25 C-17.69398402 71.47169551 -20.9129992 67.61720247 -24.0234375 63.51171875 C-26.58584907 60.25553172 -29.28935071 57.13301788 -32 54 C-45 38.93301212 -45 38.93301212 -45 36 C-45.66 36 -46.32 36 -47 36 C-47 55.14 -47 74.28 -47 94 C-54.59 94 -62.18 94 -70 94 C-70 63.31 -70 32.62 -70 1 C-47 1 -47 1 -41.625 5.8125 C-40.37495765 7.84999106 -39.16596753 9.91325722 -38 12 C-36.5998774 13.80053149 -35.16137506 15.57182506 -33.6875 17.3125 C-32.95015625 18.21484375 -32.2128125 19.1171875 -31.453125 20.046875 C-28.65220198 23.41868678 -25.79954544 26.74259883 -22.9375 30.0625 C-18.15786705 35.60963242 -13.53821944 41.2515887 -9 47 C-6.36 50.3 -3.72 53.6 -1 57 C-0.67 38.19 -0.34 19.38 0 0 Z " fill="#FAFCFD" transform="translate(316,548)"/>
<path d="M0 0 C12.74625 -0.0928125 12.74625 -0.0928125 25.75 -0.1875 C29.73658691 -0.22846802 29.73658691 -0.22846802 33.80371094 -0.27026367 C35.94726103 -0.27903835 38.09081618 -0.28667995 40.234375 -0.29296875 C41.31734863 -0.30831665 42.40032227 -0.32366455 43.51611328 -0.33947754 C55.25717959 -0.34343876 67.9133224 1.88941196 77.0703125 9.78515625 C83.00652091 16.03183581 85.0852276 22.35441125 85.4375 30.875 C85.22238645 38.54086467 82.99769218 44.88595042 78.875 51.3125 C67.14586205 62.27669417 53.70354679 63.47718991 38.25 63.1875 C33.5475 63.125625 28.845 63.06375 24 63 C24 72.9 24 82.8 24 93 C16.08 93 8.16 93 0 93 C0 62.31 0 31.62 0 0 Z " fill="#FBFCFD" transform="translate(768,549)"/>
<path d="M0 0 C0.67659668 0.11762695 1.35319336 0.23525391 2.05029297 0.35644531 C7.34267079 1.36464007 11.91036664 2.94928888 17.125 4.6875 C17.125 11.2875 17.125 17.8875 17.125 24.6875 C15.5575 24.254375 13.99 23.82125 12.375 23.375 C10.85326172 22.96894531 10.85326172 22.96894531 9.30078125 22.5546875 C7.30931661 22.01089273 5.32552695 21.43717134 3.35546875 20.8203125 C-7.93310908 17.50478614 -21.50003822 16.53025879 -32.48046875 21.37109375 C-39.52938668 25.24627375 -44.76966022 29.37672638 -48.06640625 36.8828125 C-50.78765438 46.32173113 -49.16308104 56.23824632 -44.76171875 64.87109375 C-40.4941968 71.53044217 -33.46896324 74.96811114 -26.03857422 77.25195312 C-23.46362344 77.77031379 -21.07987391 77.7997493 -18.453125 77.78515625 C-17.42832031 77.78193359 -16.40351562 77.77871094 -15.34765625 77.77539062 C-13.75244141 77.76282227 -13.75244141 77.76282227 -12.125 77.75 C-11.04605469 77.74548828 -9.96710938 77.74097656 -8.85546875 77.73632812 C-6.19528875 77.72455742 -3.53513731 77.70662239 -0.875 77.6875 C-0.875 72.0775 -0.875 66.4675 -0.875 60.6875 C-7.475 60.6875 -14.075 60.6875 -20.875 60.6875 C-20.875 54.7475 -20.875 48.8075 -20.875 42.6875 C-6.685 43.0175 7.505 43.3475 22.125 43.6875 C22.125 59.8575 22.125 76.0275 22.125 92.6875 C-3.70897317 98.42838293 -30.00804755 102.33497649 -53.8203125 87.90234375 C-60.06565474 83.6224975 -64.65129163 78.95023999 -68.875 72.6875 C-69.4525 71.883125 -70.03 71.07875 -70.625 70.25 C-76.18982292 58.84211301 -77.33713213 43.72313415 -73.3125 31.5625 C-67.12363661 17.7349346 -56.86655769 8.28412308 -42.875 2.6875 C-28.76843651 -1.73808854 -14.52204293 -2.53933832 0 0 Z " fill="#F9FCFD" transform="translate(934.875,548.3125)"/>
<path d="M0 0 C5.94 0 11.88 0 18 0 C18 22.11 18 44.22 18 67 C63.87 67 109.74 67 157 67 C157 78.55 157 90.1 157 102 C151.39 102 145.78 102 140 102 C140 97.05 140 92.1 140 87 C99.74 87 59.48 87 18 87 C18 92.28 18 97.56 18 103 C12.06 103 6.12 103 0 103 C0 69.01 0 35.02 0 0 Z " fill="#FCFDFE" transform="translate(480,301)"/>
<path d="M0 0 C0 5.94 0 11.88 0 18 C-11.34292293 18.89087892 -22.56376891 19.12318738 -33.9375 19.0625 C-35.60351426 19.05746771 -37.26953001 19.0529079 -38.93554688 19.04882812 C-42.95710018 19.03883917 -46.97843861 19.01924192 -51 19 C-51 25.93 -51 32.86 -51 40 C-35.82 40 -20.64 40 -5 40 C-5 45.94 -5 51.88 -5 58 C-8.97941721 58.14508292 -12.95884574 58.28828986 -16.93847656 58.42724609 C-18.93561653 58.49772782 -20.93265448 58.57108173 -22.9296875 58.64453125 C-24.23164063 58.68964844 -25.53359375 58.73476563 -26.875 58.78125 C-28.04804688 58.82314453 -29.22109375 58.86503906 -30.4296875 58.90820312 C-37.28514391 59.04589819 -44.14316089 59 -51 59 C-51 70.88 -51 82.76 -51 95 C-58.92 95 -66.84 95 -75 95 C-75 63.98 -75 32.96 -75 1 C-49.96197859 0.40385663 -25.02882014 -0.15323767 0 0 Z " fill="#FAFCFD" transform="translate(195,550)"/>
<path d="M0 0 C0.76118637 -0.01139008 1.52237274 -0.02278015 2.30662537 -0.03451538 C10.26722018 -0.14512021 18.22874016 -0.1925878 26.18994141 -0.23535156 C29.96742135 -0.25763278 33.74391424 -0.29940834 37.52099609 -0.35839844 C42.081614 -0.42948666 46.64130249 -0.46618304 51.20244598 -0.47846985 C52.93924008 -0.48887033 54.67600608 -0.51129475 56.41248322 -0.54606628 C70.01156134 -0.80429505 70.01156134 -0.80429505 74.01306152 1.76147461 C75.5676292 3.53244876 76.633085 5.09252718 77.61621094 7.22460938 C78.11121094 8.21460938 78.11121094 8.21460938 78.61621094 9.22460938 C78.88702589 13.51087147 78.84784154 17.80576299 78.86621094 22.09960938 C78.88683594 23.29714844 78.90746094 24.4946875 78.92871094 25.72851562 C78.93644531 27.45521484 78.93644531 27.45521484 78.94433594 29.21679688 C78.95368164 30.27237793 78.96302734 31.32795898 78.97265625 32.41552734 C78.54616056 35.77666389 78.08156648 36.90247212 75.61621094 39.22460938 C72.85782754 39.62209917 70.49559024 39.76154242 67.73583984 39.72631836 C66.53291039 39.73442284 66.53291039 39.73442284 65.30567932 39.74269104 C62.65100342 39.75521197 59.99740521 39.73866264 57.34277344 39.72070312 C55.49815819 39.72085807 53.65354262 39.72234623 51.80892944 39.72511292 C47.94018181 39.72649852 44.07180417 39.71391444 40.203125 39.69116211 C35.24755948 39.66281673 30.29261075 39.66550185 25.33699989 39.67825222 C21.52624256 39.68521387 17.71562734 39.67741389 13.90488815 39.66499519 C12.07807333 39.66048262 10.25124323 39.6601422 8.42442703 39.66406059 C5.86775828 39.66697656 3.31193316 39.6504464 0.75537109 39.62866211 C-0.37476158 39.63541458 -0.37476158 39.63541458 -1.52772522 39.64230347 C-7.20760497 39.56204079 -10.40647952 38.20191892 -14.38378906 34.22460938 C-14.89983523 29.82814278 -14.80066246 25.39787015 -14.82128906 20.97460938 C-14.85416016 19.74613281 -14.88703125 18.51765625 -14.92089844 17.25195312 C-14.98128005 7.118821 -14.98128005 7.118821 -11.98144531 3.42773438 C-7.94874387 0.00751841 -5.099278 0.05227184 0 0 Z " fill="#FBFCFD" transform="translate(559.3837890625,323.775390625)"/>
<path d="M0 0 C7.07163812 -0.50852069 14.12430272 -0.79644338 21.21484375 -0.66015625 C22.38136475 -0.64090088 23.54788574 -0.62164551 24.74975586 -0.60180664 C28.74361938 0.1376866 30.59362733 1.58622454 33.5 4.375 C34.37474397 5.92246855 35.24346841 7.47641535 36.00830078 9.08105469 C37.64975226 12.25727543 39.7397172 15.12465972 41.765625 18.06494141 C43.83072142 21.07272057 45.8242307 24.12387811 47.81420898 27.18164062 C48.86595503 28.79444783 49.93195839 30.39793759 51 32 C51.66 32 52.32 32 53 32 C54.25330334 30.63504209 54.25330334 30.63504209 55.46875 28.80859375 C55.95085938 28.11757568 56.43296875 27.42655762 56.9296875 26.71459961 C57.44789063 25.96315674 57.96609375 25.21171387 58.5 24.4375 C59.32371094 23.29776733 59.32371094 23.29776733 60.1640625 22.13500977 C62.8451079 18.37803902 65.20645895 14.77900011 67.03125 10.53125 C70.78191978 2.39057018 70.78191978 2.39057018 75 0 C84.17956533 -1.84157073 93.74815702 -0.91319568 103 0 C101.64650435 2.88003366 100.10215936 5.36624164 98.19921875 7.9140625 C97.64065186 8.66623047 97.08208496 9.41839844 96.5065918 10.19335938 C95.9062915 10.99580078 95.30599121 11.79824219 94.6875 12.625 C90.92646592 17.68326178 87.16913692 22.74167903 83.5 27.8671875 C82.94223877 28.64626465 82.38447754 29.4253418 81.80981445 30.22802734 C80.77158931 31.68201127 79.73601256 33.13789224 78.70385742 34.59619141 C78.21763916 35.27601074 77.7314209 35.95583008 77.23046875 36.65625 C76.73587158 37.36096436 76.24127441 38.06567871 75.73168945 38.79174805 C74 41 74 41 71.64916992 43.24926758 C64.27575923 50.68099491 63.85842315 57.20590171 63.85351562 67.18554688 C63.88053677 69.01954585 63.90854344 70.85353056 63.9375 72.6875 C63.93442009 74.56446426 63.92729193 76.44142646 63.91601562 78.31835938 C63.88982231 82.88204155 63.94668172 87.43382224 64 92 C56.08 92 48.16 92 40 92 C40.00902344 89.2053125 40.01804687 86.410625 40.02734375 83.53125 C40.01229797 80.80388201 39.98535014 78.07687075 39.95727539 75.34960938 C39.94419151 73.46423799 39.94335004 71.57873814 39.95532227 69.69335938 C40.58730389 57.6538145 40.58730389 57.6538145 35.78125 47.19921875 C34.53372182 46.1177633 33.27379797 45.05038621 32 44 C31.04125031 42.77894626 30.124626 41.52359067 29.25390625 40.23828125 C28.81691406 39.60446533 28.37992188 38.97064941 27.9296875 38.31762695 C27.47851562 37.65593506 27.02734375 36.99424316 26.5625 36.3125 C21.08357238 28.40435464 15.30832147 20.74834717 9.43188477 13.13208008 C6.12918699 8.84198204 2.92414045 4.55778014 0 0 Z " fill="#FAFCFD" transform="translate(621,549)"/>
<path d="M0 0 C30.8 0 30.8 0 40.625 8.1875 C46.22485059 14.81890201 47.68483476 21.15738716 47.3828125 29.78515625 C46.43715952 37.72671141 43.10124632 44.73837473 37 50 C25.70486642 57.40960763 13.54976491 55 0 55 C0 36.85 0 18.7 0 0 Z " fill="#648DD0" transform="translate(379,567)"/>
<path d="M0 0 C7.92 0 15.84 0 24 0 C24 31.02 24 62.04 24 94 C16.08 94 8.16 94 0 94 C0 62.98 0 31.96 0 0 Z " fill="#F9FBFD" transform="translate(207,549)"/>
<path d="M0 0 C3.795 -0.061875 7.59 -0.12375 11.5 -0.1875 C13.27020508 -0.22846802 13.27020508 -0.22846802 15.07617188 -0.27026367 C22.5137919 -0.32864472 28.55519479 0.1580357 34.5 5.0625 C36.70927953 9.38900575 36.62076303 13.2381975 36 18 C34.44533419 22.4696642 31.72309893 24.128376 27.52734375 26.16650391 C22.48313129 27.83004152 17.25049121 27.40515311 12 27.25 C8.04 27.1675 4.08 27.085 0 27 C0 18.09 0 9.18 0 0 Z " fill="#658DD0" transform="translate(792,567)"/>
<path d="M0 0 C13.53 0 27.06 0 41 0 C41 6.27 41 12.54 41 19 C27.47 19 13.94 19 0 19 C0 12.73 0 6.46 0 0 Z " fill="#F7FAFD" transform="translate(715,586)"/>
<path d="M0 0 C1.08023438 -0.00257813 2.16046875 -0.00515625 3.2734375 -0.0078125 C8.81097746 0.06055219 12.3823104 0.17314603 17 3.5 C18.40603618 6.31207235 18.24557505 8.74009466 18.3125 11.875 C18.36857422 13.58816406 18.36857422 13.58816406 18.42578125 15.3359375 C17.91713992 19.11574922 16.95489073 20.1865234 14 22.5 C10.02633205 24.48683397 5.05679562 23.77256128 0.6875 23.8125 C-0.88161133 23.85600586 -0.88161133 23.85600586 -2.48242188 23.90039062 C-10.22336828 23.96444683 -10.22336828 23.96444683 -14.16796875 21.60546875 C-17.08103451 18.25761706 -17.23442412 16.07238623 -17.375 11.6875 C-17.42398437 10.64980469 -17.47296875 9.61210937 -17.5234375 8.54296875 C-17 5.5 -17 5.5 -15.2265625 2.64453125 C-10.3155762 -0.61955045 -5.7619335 -0.15126794 0 0 Z " fill="#F9FBFD" transform="translate(521,313.5)"/>
<path d="M0 0 C13.2 0 26.4 0 40 0 C40 5.94 40 11.88 40 18 C26.8 18 13.6 18 0 18 C0 12.06 0 6.12 0 0 Z " fill="#F9FCFD" transform="translate(458,586)"/>
<path d="M0 0 C1.02075623 -0.00287018 1.02075623 -0.00287018 2.06213379 -0.00579834 C3.50122446 -0.00715963 4.94032744 -0.00346705 6.37939453 0.00488281 C8.58524087 0.01558372 10.79027281 0.00498628 12.99609375 -0.0078125 C14.39323097 -0.00649089 15.79036768 -0.00392848 17.1875 0 C18.46302734 0.00225586 19.73855469 0.00451172 21.05273438 0.00683594 C24.09375 0.265625 24.09375 0.265625 26.09375 2.265625 C26.09375 7.215625 26.09375 12.165625 26.09375 17.265625 C14.54375 17.265625 2.99375 17.265625 -8.90625 17.265625 C-8.90625 0.01575133 -8.90625 0.01575133 0 0 Z " fill="#F5F9FC" transform="translate(512.90625,343.734375)"/>
<path d="M0 0 C0.33 0 0.66 0 1 0 C1 21.45 1 42.9 1 65 C18.16 65 35.32 65 53 65 C53 64.34 53 63.68 53 63 C52.01 62.505 52.01 62.505 51 62 C78.72 62 106.44 62 135 62 C135 62.33 135 62.66 135 63 C99.855 63.495 99.855 63.495 64 64 C88.75 64.33 113.5 64.66 139 65 C139 65.33 139 65.66 139 66 C93.13 66 47.26 66 0 66 C0 44.22 0 22.44 0 0 Z " fill="#6587BF" transform="translate(499,301)"/>
<path d="M0 0 C0.33 0 0.66 0 1 0 C1.00364563 0.89535965 1.00729126 1.7907193 1.01104736 2.71321106 C1.04888993 11.1448502 1.10569976 19.57610106 1.18390274 28.00746632 C1.22343812 32.34231408 1.25559661 36.67695686 1.27099609 41.01196289 C1.28612313 45.19433441 1.32049719 49.37614263 1.36830902 53.55826378 C1.38316387 55.15502722 1.39104336 56.75187107 1.39188385 58.34870338 C1.39424311 60.58309847 1.4212343 62.81592353 1.45410156 65.05004883 C1.46742523 66.95866447 1.46742523 66.95866447 1.48101807 68.90583801 C1.71111945 72.0717251 1.71111945 72.0717251 3.89349365 73.9539032 C5.95082396 75.22231843 5.95082396 75.22231843 8.25 74.6875 C8.8275 74.460625 9.405 74.23375 10 74 C10.2475 74.7425 10.495 75.485 10.75 76.25 C12.09365194 79.20603427 13.68986685 80.76687128 16 83 C16 83.66 16 84.32 16 85 C16.66 85 17.32 85 18 85 C17.67 85.99 17.34 86.98 17 88 C16.35933594 87.41992188 15.71867188 86.83984375 15.05859375 86.2421875 C13.76115234 85.07042969 13.76115234 85.07042969 12.4375 83.875 C11.16712891 82.72644531 11.16712891 82.72644531 9.87109375 81.5546875 C7.30782858 79.08205054 7.30782858 79.08205054 5.21240234 78.02001953 C2.84796585 76.55590451 1.54832384 75.33284541 0 73 C-1.00875604 67.48401745 -0.81513039 62.03340225 -0.68359375 56.4453125 C-0.67052736 54.81723157 -0.6605681 53.189123 -0.65357971 51.56100464 C-0.62693497 47.2892165 -0.55824696 43.01911177 -0.48065186 38.74798584 C-0.4088631 34.38430554 -0.37703507 30.02035143 -0.34179688 25.65625 C-0.26686943 17.1033967 -0.14750271 8.55190813 0 0 Z " fill="#6C8DC2" transform="translate(660,144)"/>
<path d="M0 0 C0.33 0.99 0.66 1.98 1 3 C0.34 3.66 -0.32 4.32 -1 5 C-1.16324501 8.00163219 -1.20702643 10.91020176 -1.16015625 13.91015625 C-1.15495468 14.79279648 -1.14975311 15.67543671 -1.14439392 16.58482361 C-1.12654139 19.41088104 -1.09535674 22.23658021 -1.0625 25.0625 C-1.03493648 27.89195542 -1.01023122 30.72136129 -0.99131775 33.55088806 C-0.9790046 35.31376219 -0.96134751 37.07660816 -0.93800354 38.83937073 C-0.92111854 40.89294838 -0.95526449 42.94684023 -1 45 C-2 46 -2 46 -4.50024414 46.11352539 C-5.58426514 46.10828857 -6.66828613 46.10305176 -7.78515625 46.09765625 C-9.53989258 46.09282227 -9.53989258 46.09282227 -11.33007812 46.08789062 C-13.17762695 46.07532227 -13.17762695 46.07532227 -15.0625 46.0625 C-16.91584961 46.05573242 -16.91584961 46.05573242 -18.80664062 46.04882812 C-21.87114117 46.03699608 -24.93554721 46.02051173 -28 46 C-28 45.67 -28 45.34 -28 45 C-20.08 45 -12.16 45 -4 45 C-4.04640625 42.17050781 -4.0928125 39.34101562 -4.140625 36.42578125 C-4.17183925 33.67881056 -4.19611637 30.93185978 -4.21972656 28.18481445 C-4.23981546 26.2787997 -4.26709194 24.37284638 -4.30175781 22.46704102 C-4.35039642 19.72396674 -4.37299579 16.98170875 -4.390625 14.23828125 C-4.41127014 13.38913651 -4.43191528 12.53999176 -4.45318604 11.66511536 C-4.45476979 7.46908776 -4.3446785 5.52395953 -1.97558594 1.92260742 C-1.32364258 1.28814697 -0.67169922 0.65368652 0 0 Z " fill="#7895C4" transform="translate(689,596)"/>
<path d="M0 0 C-15.00260521 9.05687227 -32.0280032 7.12685715 -48.875 6.625 C-51.12367032 6.56663509 -53.37236853 6.50933496 -55.62109375 6.453125 C-61.08111146 6.31435497 -66.54063832 6.16245518 -72 6 C-72 5.67 -72 5.34 -72 5 C-71.40468475 4.99413376 -70.80936951 4.98826752 -70.1960144 4.98222351 C-63.93262751 4.91769363 -57.66972653 4.83313032 -51.40673828 4.73754883 C-49.07737687 4.70453907 -46.74794006 4.67643478 -44.41845703 4.65356445 C-24.26474889 4.51109462 -24.26474889 4.51109462 -4.76513672 -0.16137695 C-2 -1 -2 -1 0 0 Z " fill="#829ECC" transform="translate(427,636)"/>
<path d="M0 0 C0.77111618 -0.00043808 1.54223236 -0.00087616 2.3367157 -0.00132751 C4.88001007 0.0007589 7.42264141 0.02408252 9.96582031 0.04760742 C11.73129923 0.05320391 13.49678282 0.05747376 15.26226807 0.06047058 C19.90497745 0.07191521 24.54740448 0.10137908 29.19000244 0.13458252 C33.9290383 0.16529164 38.66811985 0.17897772 43.40722656 0.1940918 C52.70292341 0.22624916 61.99841087 0.27744091 71.29394531 0.34057617 C71.29394531 0.67057617 71.29394531 1.00057617 71.29394531 1.34057617 C70.33594528 1.34866302 69.37794525 1.35674988 68.39091492 1.36508179 C59.37073405 1.4425049 50.35070474 1.53023439 41.33072186 1.62810326 C36.69324941 1.6780883 32.05579998 1.7244181 27.41821289 1.76245117 C22.94422073 1.79927614 18.4704202 1.8456284 13.99659157 1.89863968 C12.28816902 1.91719849 10.57970538 1.93230094 8.87122154 1.94392014 C6.48157425 1.96075729 4.09236723 1.98978565 1.70288086 2.02172852 C0.99365982 2.0238887 0.28443878 2.02604889 -0.4462738 2.02827454 C-4.08336083 2.09054707 -5.59162188 2.26428763 -8.70605469 4.34057617 C-9.69605469 4.01057617 -10.68605469 3.68057617 -11.70605469 3.34057617 C-8.13751061 -0.13476287 -4.72108267 -0.0703008 0 0 Z " fill="#E8F5FE" transform="translate(559.7060546875,323.659423828125)"/>
<path d="M0 0 C5 5 5 5 6 7 C4.35 6.67 2.7 6.34 1 6 C1 22.83 1 39.66 1 57 C0.67 57 0.34 57 0 57 C0 38.19 0 19.38 0 0 Z " fill="#6587C0" transform="translate(270,585)"/>
<path d="M0 0 C4 4 4 4 4 6 C3.01 6 2.02 6 1 6 C1 23.82 1 41.64 1 60 C0.67 60 0.34 60 0 60 C0 40.2 0 20.4 0 0 Z " fill="#7392C4" transform="translate(532,581)"/>
<path d="M0 0 C0.5878125 0.48855469 1.175625 0.97710937 1.78125 1.48046875 C6.62058464 3.76505756 11.21897552 3.39491299 16.5 3.3125 C18.04880859 3.31733398 18.04880859 3.31733398 19.62890625 3.32226562 C24.63103592 3.28676664 28.38699587 3.08968255 33 1 C32.67 1.99 32.34 2.98 32 4 C29.93359375 4.94921875 29.93359375 4.94921875 27.4375 5.6875 C26.19806641 6.06455078 26.19806641 6.06455078 24.93359375 6.44921875 C24.29550781 6.63097656 23.65742187 6.81273437 23 7 C22.67 6.67 22.34 6.34 22 6 C18.26257672 5.76168252 14.53170039 5.60420612 10.7890625 5.48242188 C6.45504214 5.29536725 2.95363182 4.98485175 -1 3 C-0.67 2.01 -0.34 1.02 0 0 Z " fill="#7395CA" transform="translate(505,333)"/>
<path d="M0 0 C0.66 0.33 1.32 0.66 2 1 C0.71034824 2.37562854 -0.62689293 3.70766393 -2 5 C-2.66 5 -3.32 5 -4 5 C-4.400979 5.8967041 -4.400979 5.8967041 -4.81005859 6.81152344 C-6.01889711 9.03475455 -7.17171852 10.33135396 -9.0390625 12.015625 C-9.61914062 12.54414063 -10.19921875 13.07265625 -10.796875 13.6171875 C-11.40015625 14.15601563 -12.0034375 14.69484375 -12.625 15.25 C-13.54152344 16.08144531 -13.54152344 16.08144531 -14.4765625 16.9296875 C-15.97956565 18.2917841 -17.4891468 19.64661601 -19 21 C-19.66 20.67 -20.32 20.34 -21 20 C-18.44169924 17.4124795 -15.87762584 14.83075324 -13.3125 12.25 C-12.59126953 11.52039063 -11.87003906 10.79078125 -11.12695312 10.0390625 C-7.56707131 6.46292552 -4.04793527 3.03395543 0 0 Z " fill="#EAF7FD" transform="translate(480,256)"/>
<path d="M0 0 C1.68319336 0.03383789 1.68319336 0.03383789 3.40039062 0.06835938 C6.16412536 0.12716224 8.92512554 0.20929599 11.6875 0.3125 C11.6875 0.6425 11.6875 0.9725 11.6875 1.3125 C11.01170898 1.31660889 10.33591797 1.32071777 9.63964844 1.32495117 C6.571382 1.35788945 3.50510074 1.4285326 0.4375 1.5 C-1.15771484 1.50870117 -1.15771484 1.50870117 -2.78515625 1.51757812 C-8.88789865 1.5744158 -8.88789865 1.5744158 -14 4.53125 C-15.35320293 7.39875145 -15.89430402 9.47132544 -16.0625 12.625 C-16.11921875 13.50800781 -16.1759375 14.39101563 -16.234375 15.30078125 C-16.27304687 16.29658203 -16.27304687 16.29658203 -16.3125 17.3125 C-16.6425 17.3125 -16.9725 17.3125 -17.3125 17.3125 C-17.44842021 15.41867836 -17.5449094 13.52200296 -17.625 11.625 C-17.68300781 10.56925781 -17.74101562 9.51351563 -17.80078125 8.42578125 C-17.3125 5.3125 -17.3125 5.3125 -15.5625 2.4375 C-10.56235027 -0.83182867 -5.83027351 -0.22148906 0 0 Z " fill="#D9E9FC" transform="translate(521.3125,313.6875)"/>
<path d="M0 0 C0 3.61210275 -1.17771792 4.85872551 -3.50390625 7.5078125 C-6.77811434 10.77347175 -10.37719585 13.28879936 -15 14 C-10.2347969 9.0759568 -5.11342667 4.55740358 0 0 Z " fill="#7492C9" transform="translate(439,269)"/>
<path d="M0 0 C0.66 0.33 1.32 0.66 2 1 C-4.28583222 7.46262125 -10.89284234 13.44753308 -18 19 C-18.66 18.67 -19.32 18.34 -20 18 C-13.40235323 11.91916889 -6.79775623 5.8580664 0 0 Z " fill="#E1F0FC" transform="translate(534,146)"/>
<path d="M0 0 C0.33 0 0.66 0 1 0 C1.70174756 3.24709194 2.38388069 6.49800252 3.0625 9.75 C3.26166016 10.67039062 3.46082031 11.59078125 3.66601562 12.5390625 C3.84970703 13.42851562 4.03339844 14.31796875 4.22265625 15.234375 C4.39547119 16.05131836 4.56828613 16.86826172 4.74633789 17.70996094 C5.01129884 20.10200494 4.73312703 21.72525071 4 24 C-0.41565265 17.37652103 -0.30600606 7.80315459 0 0 Z " fill="#7A99CA" transform="translate(430,368)"/>
<path d="M0 0 C3.14581423 -0.02888514 6.29159469 -0.04675923 9.4375 -0.0625 C10.33533203 -0.07087891 11.23316406 -0.07925781 12.15820312 -0.08789062 C13.01220703 -0.09111328 13.86621094 -0.09433594 14.74609375 -0.09765625 C15.93223267 -0.10551147 15.93223267 -0.10551147 17.14233398 -0.11352539 C19 0 19 0 20 1 C20.07319621 3.69654854 20.09242537 6.36691458 20.0625 9.0625 C20.05798828 9.82111328 20.05347656 10.57972656 20.04882812 11.36132812 C20.0370068 13.24091871 20.01907078 15.12046899 20 17 C19.67 17 19.34 17 19 17 C18.93941406 16.00097656 18.87882813 15.00195312 18.81640625 13.97265625 C18.73261719 12.68230469 18.64882813 11.39195312 18.5625 10.0625 C18.48128906 8.77472656 18.40007813 7.48695313 18.31640625 6.16015625 C18.35080812 3.13976043 18.35080812 3.13976043 17 2 C14.14122091 1.76298761 11.30116703 1.57780818 8.4375 1.4375 C7.63119141 1.39431641 6.82488281 1.35113281 5.99414062 1.30664062 C3.99631195 1.20024738 1.9981793 1.09959112 0 1 C0 0.67 0 0.34 0 0 Z " fill="#89A4D1" transform="translate(520,343)"/>
<path d="M0 0 C1.77074917 -0.02705729 3.54161711 -0.04642195 5.3125 -0.0625 C6.29863281 -0.07410156 7.28476562 -0.08570313 8.30078125 -0.09765625 C11 0 11 0 14 1 C15.42610133 4.42264319 15.09901205 8.09879533 15.0625 11.75 C15.05347656 12.92046875 15.04445313 14.0909375 15.03515625 15.296875 C15.02355469 16.18890625 15.01195312 17.0809375 15 18 C14.67 18 14.34 18 14 18 C13.96261719 17.16855469 13.92523437 16.33710938 13.88671875 15.48046875 C13.82097656 14.39378906 13.75523437 13.30710937 13.6875 12.1875 C13.62949219 11.10855469 13.57148437 10.02960938 13.51171875 8.91796875 C13.21263238 6.05118142 13.21263238 6.05118142 11.78125 4.1875 C9.49055709 2.6603714 7.52000085 2.26961053 4.8125 1.8125 C3.46091797 1.57466797 3.46091797 1.57466797 2.08203125 1.33203125 C1.39496094 1.22246094 0.70789063 1.11289062 0 1 C0 0.67 0 0.34 0 0 Z " fill="#7B98C9" transform="translate(525,313)"/>
<path d="M0 0 C0.33 0.99 0.66 1.98 1 3 C0.278125 3.556875 -0.44375 4.11375 -1.1875 4.6875 C-4.07040666 6.9634445 -4.07040666 6.9634445 -6.625 9.75 C-9 12 -9 12 -12 12 C-8.27653164 7.57905197 -4.70478962 3.42166518 0 0 Z " fill="#7596CC" transform="translate(489,274)"/>
<path d="M0 0 C0.33 0.66 0.66 1.32 1 2 C-0.21131129 3.82448127 -1.44476743 5.63427436 -2.6875 7.4375 C-3.71423828 8.95150391 -3.71423828 8.95150391 -4.76171875 10.49609375 C-7.22694014 13.25387196 -8.37942004 13.75270995 -12 14 C-8 9.33333333 -4 4.66666667 0 0 Z " fill="#7194CB" transform="translate(654,432)"/>
<path d="M0 0 C0.33 0.99 0.66 1.98 1 3 C-2.74040219 8.66727605 -2.74040219 8.66727605 -7.3125 9.875 C-8.6428125 9.936875 -8.6428125 9.936875 -10 10 C-3.84965831 2.51708428 -3.84965831 2.51708428 0 0 Z " fill="#6D91C9" transform="translate(503,214)"/>
<path d="M0 0 C0 3 0 3 -1.23754883 4.45800781 C-3.08724579 6.0663486 -4.9386966 7.66972836 -6.8125 9.25 C-7.45509766 9.8171875 -8.09769531 10.384375 -8.75976562 10.96875 C-9.38173828 11.49984375 -10.00371094 12.0309375 -10.64453125 12.578125 C-11.21534424 13.06700195 -11.78615723 13.55587891 -12.37426758 14.05957031 C-12.91075928 14.36991211 -13.44725098 14.68025391 -14 15 C-14.99 14.67 -15.98 14.34 -17 14 C-16.52054932 13.61142822 -16.04109863 13.22285645 -15.54711914 12.82250977 C-13.38510408 11.06975857 -11.2237935 9.31614086 -9.0625 7.5625 C-7.93038086 6.64500977 -7.93038086 6.64500977 -6.77539062 5.70898438 C-6.05673828 5.12568359 -5.33808594 4.54238281 -4.59765625 3.94140625 C-3.93258057 3.40201416 -3.26750488 2.86262207 -2.58227539 2.30688477 C-1.06012522 1.09175471 -1.06012522 1.09175471 0 0 Z " fill="#DFEEFB" transform="translate(379,459)"/>
<path d="M0 0 C2.6875 0.875 2.6875 0.875 5 2 C4.443125 2.061875 3.88625 2.12375 3.3125 2.1875 C0.73614971 2.90040775 0.73614971 2.90040775 -1.4375 5.5 C-4.12123322 8.11827631 -5.3480039 8.68697176 -9 9 C-8.06725891 7.87105124 -7.12859878 6.74699124 -6.1875 5.625 C-5.66542969 4.99851563 -5.14335938 4.37203125 -4.60546875 3.7265625 C-3 2 -3 2 0 0 Z " fill="#7796CA" transform="translate(555,169)"/>
<path d="M0 0 C3 1 3 1 4.9375 4 C6.66243964 7.11164048 6.66243964 7.11164048 9.25 7.875 C10.11625 7.936875 10.11625 7.936875 11 8 C11 8.66 11 9.32 11 10 C11.66 10 12.32 10 13 10 C13.33 10.99 13.66 11.98 14 13 C8.19911245 11.12324226 4.13732832 8.00928003 1.125 2.6875 C0.75375 1.800625 0.3825 0.91375 0 0 Z " fill="#728FC3" transform="translate(888,610)"/>
<path d="M0 0 C0.66 0.33 1.32 0.66 2 1 C-1.70090521 4.9252025 -5.54959656 7.94580156 -10 11 C-10.33 10.01 -10.66 9.02 -11 8 C-7.37 5.36 -3.74 2.72 0 0 Z " fill="#7395CC" transform="translate(501,265)"/>
<path d="M0 0 C0.33 0.99 0.66 1.98 1 3 C-0.24196122 4.15454162 -1.49392845 5.29832562 -2.75 6.4375 C-3.79414062 7.39462891 -3.79414062 7.39462891 -4.859375 8.37109375 C-6.98792725 9.99081325 -8.39023405 10.58267256 -11 11 C-7.6381774 6.74828319 -4.25171681 3.3618226 0 0 Z " fill="#7997CC" transform="translate(522,197)"/>
<path d="M0 0 C0.66 0.33 1.32 0.66 2 1 C0.58474822 2.58459815 -0.8322642 4.16762391 -2.25 5.75 C-3.03890625 6.63171875 -3.8278125 7.5134375 -4.640625 8.421875 C-6.70592672 10.67866165 -8.81735064 12.85739926 -11 15 C-9.58319756 10.67953102 -7.46236215 7.99538801 -4.375 4.6875 C-3.55773437 3.80449219 -2.74046875 2.92148437 -1.8984375 2.01171875 C-0.95871094 1.01591797 -0.95871094 1.01591797 0 0 Z " fill="#E0EFFC" transform="translate(876,560)"/>
<path d="M0 0 C1.98 0.99 1.98 0.99 4 2 C4 2.66 4 3.32 4 4 C4.66 4 5.32 4 6 4 C8.92092737 6.30133672 9.90305826 7.57991912 10.75 11.25 C10.87375 12.61125 10.87375 12.61125 11 14 C8.16737886 11.26138177 5.66021341 8.42826734 3.25 5.3125 C2.63640625 4.52488281 2.0228125 3.73726563 1.390625 2.92578125 C0 1 0 1 0 0 Z " fill="#7392C5" transform="translate(651,274)"/>
<path d="M0 0 C0.33 0.99 0.66 1.98 1 3 C-0.07543783 3.98783194 -1.16073217 4.96493943 -2.25 5.9375 C-3.15492188 6.75541016 -3.15492188 6.75541016 -4.078125 7.58984375 C-6.08467305 9.06212799 -7.57002449 9.57529189 -10 10 C-6.92118304 6.12948725 -3.99926986 2.97088618 0 0 Z " fill="#7493CA" transform="translate(468,244)"/>
<path d="M0 0 C0.66 0.33 1.32 0.66 2 1 C-2.12324647 5.25209792 -6.51282966 9.13635705 -11 13 C-11 10 -11 10 -8.59375 7.51953125 C-7.56994769 6.60874608 -6.53832966 5.70668808 -5.5 4.8125 C-4.97535156 4.34908203 -4.45070313 3.88566406 -3.91015625 3.40820312 C-2.61333776 2.264645 -1.30750133 1.13132826 0 0 Z " fill="#708FC5" transform="translate(484,230)"/>
<path d="M0 0 C6.70842135 -0.23538321 12.23759526 0.15839684 18 4 C11.85845775 3.41509121 5.99320151 2.45933748 0 1 C0 0.67 0 0.34 0 0 Z " fill="#7A98CA" transform="translate(934,548)"/>
<path d="M0 0 C0.33 0.99 0.66 1.98 1 3 C-3.30769231 7.92307692 -3.30769231 7.92307692 -6.8125 8.3125 C-7.534375 8.209375 -8.25625 8.10625 -9 8 C-6.14723863 5.06799526 -3.34920216 2.35684596 0 0 Z " fill="#7597CE" transform="translate(405,502)"/>
<path d="M0 0 C0.66 0.33 1.32 0.66 2 1 C0.78395887 2.32467011 -0.44845222 3.63432405 -1.6875 4.9375 C-2.37199219 5.66839844 -3.05648438 6.39929688 -3.76171875 7.15234375 C-6.23537632 9.19429843 -7.85043641 9.65249999 -11 10 C-7.50640535 6.40365256 -3.88901869 3.16548033 0 0 Z " fill="#6E90C6" transform="translate(415,290)"/>
<path d="M0 0 C0 3.58912412 -0.66436554 4.10857029 -3 6.6875 C-3.556875 7.31011719 -4.11375 7.93273437 -4.6875 8.57421875 C-5.120625 9.04472656 -5.55375 9.51523437 -6 10 C-6.99 9.67 -7.98 9.34 -9 9 C-6 6 -3 3 0 0 Z " fill="#7A99CF" transform="translate(449,260)"/>
<path d="M0 0 C0.66 0.33 1.32 0.66 2 1 C-1.57729872 5.66132863 -5.10867301 8.73911534 -10 12 C-10 9 -10 9 -7.8125 6.73828125 C-6.884375 5.93777344 -5.95625 5.13726562 -5 4.3125 C-4.071875 3.50425781 -3.14375 2.69601562 -2.1875 1.86328125 C-1.1046875 0.94095703 -1.1046875 0.94095703 0 0 Z " fill="#E2F0FB" transform="translate(401,261)"/>
<path d="M0 0 C0 3.59857954 -0.95830515 5.09451118 -3 8 C-3.66 8 -4.32 8 -5 8 C-5.66 9.32 -6.32 10.64 -7 12 C-7.66 11.67 -8.32 11.34 -9 11 C-6.03 7.37 -3.06 3.74 0 0 Z " fill="#7595C7" transform="translate(581,596)"/>
<path d="M0 0 C0.33 0.66 0.66 1.32 1 2 C-1.16798732 7.4770206 -1.16798732 7.4770206 -4.1875 9.375 C-4.785625 9.58125 -5.38375 9.7875 -6 10 C-4.6302836 6.00499382 -2.74277578 3.19990508 0 0 Z " fill="#7796CD" transform="translate(893,575)"/>
<path d="M0 0 C0.66 0.66 1.32 1.32 2 2 C0.9015258 3.46262592 -0.2040036 4.91995503 -1.3125 6.375 C-1.92738281 7.18710937 -2.54226563 7.99921875 -3.17578125 8.8359375 C-5 11 -5 11 -8 13 C-6.53181332 9.89257577 -4.79975 7.09528261 -2.875 4.25 C-2.33617187 3.45078125 -1.79734375 2.6515625 -1.2421875 1.828125 C-0.62730469 0.92320312 -0.62730469 0.92320312 0 0 Z " fill="#E4F2FC" transform="translate(683,568)"/>
<path d="M0 0 C0.66 0.33 1.32 0.66 2 1 C0.9015258 2.46262592 -0.2040036 3.91995503 -1.3125 5.375 C-1.92738281 6.18710937 -2.54226563 6.99921875 -3.17578125 7.8359375 C-5 10 -5 10 -8 12 C-6.49087042 7.01987239 -3.44338151 3.75740058 0 0 Z " fill="#DEEDFA" transform="translate(591,550)"/>
<path d="M0 0 C0.8125 1.6875 0.8125 1.6875 1 4 C-1.69270677 7.23124812 -4.22480438 9.23770311 -8 11 C-7.04454634 9.53977837 -6.08553322 8.08188532 -5.125 6.625 C-4.59132813 5.81289063 -4.05765625 5.00078125 -3.5078125 4.1640625 C-2 2 -2 2 0 0 Z " fill="#7D99CB" transform="translate(591,583)"/>
<path d="M0 0 C0.66 0 1.32 0 2 0 C2 0.66 2 1.32 2 2 C2.66 2 3.32 2 4 2 C4 2.66 4 3.32 4 4 C5.65 4 7.3 4 9 4 C8.34 5.32 7.68 6.64 7 8 C2.60841671 6.5361389 2.12052567 4.02168662 0 0 Z " fill="#7793C6" transform="translate(667,574)"/>
<path d="M0 0 C1.98 0 3.96 0 6 0 C7.33332095 2.6666419 6.67102033 4.16680303 6 7 C1.125 2.25 1.125 2.25 0 0 Z " fill="#E9F5FD" transform="translate(621,549)"/>
<path d="M0 0 C0.33 0.66 0.66 1.32 1 2 C-1.88341534 6.21422242 -4.04303419 7.76075855 -9 9 C-6 6 -3 3 0 0 Z " fill="#7595CC" transform="translate(418,491)"/>
<path d="M0 0 C4.95 1.32 9.9 2.64 15 4 C13 6 13 6 10.6875 6.3125 C7.46677526 5.93799712 5.68668785 4.76755779 3 3 C2.01 2.67 1.02 2.34 0 2 C0 1.34 0 0.68 0 0 Z " fill="#6E8DC4" transform="translate(889,640)"/>
<path d="M0 0 C7.42857143 -0.14285714 7.42857143 -0.14285714 11 1 C10.67 1.99 10.34 2.98 10 4 C6.7 3.01 3.4 2.02 0 1 C0 0.67 0 0.34 0 0 Z " fill="#7495C7" transform="translate(825,549)"/>
<path d="M0 0 C0.33 0.99 0.66 1.98 1 3 C-1 5 -1 5 -4 6 C-5.66710346 7.49985609 -5.66710346 7.49985609 -7 9 C-7.66 8.34 -8.32 7.68 -9 7 C-6.03 4.69 -3.06 2.38 0 0 Z " fill="#7493CB" transform="translate(449,466)"/>
<path d="M0 0 C4.67105792 1.55701931 8.08705685 4.08447373 12 7 C11.67 7.99 11.34 8.98 11 10 C9.72799029 8.89718873 8.45744147 7.79269231 7.1875 6.6875 C6.47980469 6.07261719 5.77210938 5.45773438 5.04296875 4.82421875 C3.29863261 3.26665665 1.63221959 1.67341125 0 0 Z " fill="#7894C7" transform="translate(602,166)"/>
<path d="M0 0 C2.93200474 2.85276137 5.64315404 5.65079784 8 9 C7.01 9.33 6.02 9.66 5 10 C4.34 8.02 3.68 6.04 3 4 C2.01 4 1.02 4 0 4 C0 2.68 0 1.36 0 0 Z " fill="#7D99CB" transform="translate(632,284)"/>
<path d="M0 0 C1.98 0 3.96 0 6 0 C6.28875 0.61875 6.5775 1.2375 6.875 1.875 C7.93720042 4.13325765 7.93720042 4.13325765 10 6 C6.62972148 6 5.93297304 5.50175992 3.3125 3.5625 C2.68988281 3.11003906 2.06726563 2.65757812 1.42578125 2.19140625 C0.95527344 1.79824219 0.48476563 1.40507813 0 1 C0 0.67 0 0.34 0 0 Z " fill="#718FC7" transform="translate(430,556)"/>
<path d="M0 0 C4.59306496 1.4859916 7.43569245 3.85014682 11 7 C10.34 7.66 9.68 8.32 9 9 C7.49704815 7.69088122 5.99770689 6.37761608 4.5 5.0625 C3.6646875 4.33160156 2.829375 3.60070312 1.96875 2.84765625 C1.3190625 2.23792969 0.669375 1.62820312 0 1 C0 0.67 0 0.34 0 0 Z " fill="#7A97CA" transform="translate(592,157)"/>
<path d="M0 0 C3.98069267 2.87494471 6.43571997 5.82117329 9 10 C4.71095765 8.4114658 2.67654474 5.56872632 0 2 C0 1.34 0 0.68 0 0 Z " fill="#7593C4" transform="translate(283,601)"/>
<path d="M0 0 C4.43458973 1.3937282 6.87378374 3.60582235 10 7 C9.67 7.66 9.34 8.32 9 9 C7.49704815 7.69088122 5.99770689 6.37761608 4.5 5.0625 C3.6646875 4.33160156 2.829375 3.60070312 1.96875 2.84765625 C1.3190625 2.23792969 0.669375 1.62820313 0 1 C0 0.67 0 0.34 0 0 Z " fill="#7E9BCC" transform="translate(480,424)"/>
<path d="M0 0 C2.475 0.99 2.475 0.99 5 2 C5 2.66 5 3.32 5 4 C6.32 4.66 7.64 5.32 9 6 C9 6.99 9 7.98 9 9 C7.49704815 7.69088122 5.99770689 6.37761608 4.5 5.0625 C3.6646875 4.33160156 2.829375 3.60070312 1.96875 2.84765625 C1.3190625 2.23792969 0.669375 1.62820313 0 1 C0 0.67 0 0.34 0 0 Z " fill="#7B97C6" transform="translate(632,256)"/>
<path d="M0 0 C3 0 3 0 4.6875 1.375 C6 3 6 3 6 5 C6.66 5 7.32 5 8 5 C7.67 5.99 7.34 6.98 7 8 C5.8274869 7.04882866 4.66212985 6.08882991 3.5 5.125 C2.8503125 4.59132812 2.200625 4.05765625 1.53125 3.5078125 C1.0259375 3.01023438 0.520625 2.51265625 0 2 C0 1.34 0 0.68 0 0 Z " fill="#708EC6" transform="translate(670,224)"/>
<path d="M0 0 C2.31 1.65 4.62 3.3 7 5 C6.01 5.33 5.02 5.66 4 6 C1.3125 4.5625 1.3125 4.5625 -1 3 C-0.67 2.01 -0.34 1.02 0 0 Z " fill="#7392CA" transform="translate(619,223)"/>
<path d="M0 0 C2.38672669 2.96283313 4.7353371 5.94270509 7 9 C4 9 4 9 1.8125 7.3125 C-0.31050198 4.6038423 -0.37254569 3.35291118 0 0 Z " fill="#7995CA" transform="translate(865,619)"/>
<path d="M0 0 C0 0.99 0 1.98 0 3 C-2.375 4.5625 -2.375 4.5625 -5 6 C-5.66 6.66 -6.32 7.32 -7 8 C-7 7.34 -7 6.68 -7 6 C-7.66 5.67 -8.32 5.34 -9 5 C-6.03 3.35 -3.06 1.7 0 0 Z " fill="#7595CA" transform="translate(623,460)"/>
<path d="M0 0 C1.875 0.5625 1.875 0.5625 4 2 C5.25 5.625 5.25 5.625 6 9 C2.91910327 6.22719294 1.31224548 3.93673644 0 0 Z " fill="#6F91C6" transform="translate(463,400)"/>
<path d="M0 0 C0.66 0.33 1.32 0.66 2 1 C1 4 1 4 -1 7 C-1.33 7.66 -1.66 8.32 -2 9 C-2.66 9 -3.32 9 -4 9 C-2.25 2.25 -2.25 2.25 0 0 Z " fill="#7597CB" transform="translate(674,399)"/>
<path d="M0 0 C0 0.33 0 0.66 0 1 C-3.98060777 2.17076699 -7.91621717 3.25749403 -12 4 C-8.41084094 -0.78554541 -5.58334594 -0.37222306 0 0 Z " fill="#E0EFFB" transform="translate(560,324)"/>
<path d="M0 0 C0 3 0 3 -2.5 5.6875 C-3.325 6.450625 -4.15 7.21375 -5 8 C-5.66 7.34 -6.32 6.68 -7 6 C-4.69 4.02 -2.38 2.04 0 0 Z " fill="#7394CA" transform="translate(719,293)"/>
<path d="M0 0 C4.875 4.75 4.875 4.75 6 7 C4.35 6.67 2.7 6.34 1 6 C0.67 4.02 0.34 2.04 0 0 Z " fill="#7693C5" transform="translate(270,585)"/>
<path d="M0 0 C0.99 0 1.98 0 3 0 C3.1875 2.875 3.1875 2.875 3 6 C2.01 6.66 1.02 7.32 0 8 C-0.99 7.67 -1.98 7.34 -3 7 C-1.68 6.01 -0.36 5.02 1 4 C0.67 2.68 0.34 1.36 0 0 Z " fill="#6F8FC8" transform="translate(458,454)"/>
<path d="M0 0 C0.33 0.66 0.66 1.32 1 2 C0.01 3.32 -0.98 4.64 -2 6 C-3.32 5.67 -4.64 5.34 -6 5 C-4.02 3.35 -2.04 1.7 0 0 Z " fill="#7696C9" transform="translate(433,479)"/>
<path d="M0 0 C1.8125 0.1875 1.8125 0.1875 4 1 C5.8125 3.4375 5.8125 3.4375 7 6 C6.67 6.66 6.34 7.32 6 8 C4.9970458 6.85675161 3.99770973 5.71032809 3 4.5625 C2.443125 3.92441406 1.88625 3.28632813 1.3125 2.62890625 C0 1 0 1 0 0 Z " fill="#7290C5" transform="translate(473,415)"/>
<path d="M0 0 C3.53600465 1.91135386 5.78972846 3.62642766 8 7 C5.5625 6.1875 5.5625 6.1875 3 5 C2.67 4.01 2.34 3.02 2 2 C1.34 2 0.68 2 0 2 C0 1.34 0 0.68 0 0 Z " fill="#7491C5" transform="translate(576,186)"/>
<path d="M0 0 C3.93673644 1.31224548 6.22719294 2.91910327 9 6 C4.58763974 6 3.21615077 3.9302707 0 1 C0 0.67 0 0.34 0 0 Z " fill="#7996C9" transform="translate(584,150)"/>
</svg>
